<?xml version="1.0" encoding="UTF-8"?>
<svg version="1.1" xmlns="http://www.w3.org/2000/svg" width="1587" height="2245">
<path d="M0 0 C523.71 0 1047.42 0 1587 0 C1587 740.85 1587 1481.7 1587 2245 C1063.29 2245 539.58 2245 0 2245 C0 1504.15 0 763.3 0 0 Z " fill="#FEFEFE" transform="translate(0,0)"/>
<path d="M0 0 C4.40352047 3.66636726 8.67994094 7.46018275 12.9140625 11.3203125 C15.01918748 13.22830203 17.15613634 15.08797069 19.3125 16.9375 C23.07144822 20.20483528 26.54566608 23.71466949 30.0390625 27.26171875 C32.00373841 29.19515423 34.01452391 30.97978434 36.125 32.75 C39.43582786 35.5871115 42.32971752 38.65934407 45.2421875 41.90234375 C51.11682227 48.3823028 57.27576071 54.54557118 63.5 60.6875 C69.37599762 66.48685417 75.20780856 72.25415734 80.57324219 78.53808594 C83.78619219 82.17768277 87.28778898 85.53722477 90.75 88.9375 C95.59021555 93.69112851 100.25231883 98.49898086 104.67773438 103.64257812 C106.76149571 106.02143113 108.98483744 108.23194698 111.25 110.4375 C114.18118191 113.33341958 117.01403174 116.23992571 119.6875 119.375 C122.55174326 122.72677402 125.61360315 125.84278109 128.75 128.9375 C132.40697013 132.55097124 135.90422601 136.23411743 139.2421875 140.14453125 C142.0103822 143.30587423 144.88220658 146.36661991 147.75 149.4375 C152.34113274 154.36370489 156.86862274 159.322799 161.25 164.4375 C162.1059375 165.42621094 162.961875 166.41492188 163.84375 167.43359375 C166.99903578 171.08476324 170.12896759 174.75702867 173.25 178.4375 C173.81702637 179.10491211 174.38405273 179.77232422 174.96826172 180.45996094 C198.78896536 208.60262059 225.81785219 243.53264423 223.91796875 282.4296875 C223.12591121 290.47895313 219.47313408 296.70725543 215.25 303.4375 C214.47970273 304.75063298 213.71279722 306.06576123 212.94921875 307.3828125 C207.29057183 316.95772148 200.66353583 325.72576361 193.79882812 334.45947266 C191.92432533 336.8534231 190.08061699 339.26980899 188.23852539 341.6887207 C180.39012714 351.9784303 172.08873263 361.88338355 163.70019531 371.73291016 C162.23196961 373.45869329 160.76826467 375.18824272 159.3046875 376.91796875 C153.33194514 383.95489901 147.2010586 390.80901608 140.91015625 397.5625 C138.85578506 399.78278957 136.84663351 402.01967306 134.875 404.3125 C129.82331579 410.1451209 124.48769157 415.723903 119.20849609 421.34960938 C117.17478123 423.51768835 115.1437878 425.68829125 113.11328125 427.859375 C111.76309136 429.30214934 110.41283274 430.74485936 109.0625 432.1875 C108.42699219 432.86683594 107.79148437 433.54617188 107.13671875 434.24609375 C106.54117187 434.88160156 105.945625 435.51710938 105.33203125 436.171875 C104.80843018 436.73100586 104.2848291 437.29013672 103.74536133 437.86621094 C102.25 439.4375 102.25 439.4375 100.49487305 440.76660156 C98.94401056 442.4756601 98.94401056 442.4756601 99.40942383 445.31298828 C100.22069289 448.32856235 101.20203255 450.69890988 102.69921875 453.4296875 C103.2104126 454.36973633 103.72160645 455.30978516 104.24829102 456.27832031 C104.80572998 457.27959961 105.36316895 458.28087891 105.9375 459.3125 C106.5162085 460.3653418 107.09491699 461.41818359 107.69116211 462.50292969 C114.00926657 473.9317277 120.58808824 485.20653513 127.25 496.4375 C127.77480957 497.32453613 128.29961914 498.21157227 128.84033203 499.12548828 C135.59513241 510.52783142 142.5521666 521.78859796 149.67724609 532.96289062 C151.30027497 535.51660386 152.91089442 538.07782478 154.51953125 540.640625 C174.4357475 572.28764202 195.8231844 603.27103386 219.25 632.4375 C220.01328613 633.39003662 220.01328613 633.39003662 220.79199219 634.36181641 C231.20211157 647.33174934 241.83107249 660.03199867 253.26733398 672.11352539 C256.06751313 675.07446854 258.80281144 678.06395848 261.453125 681.16015625 C265.79666156 686.1565797 270.47681998 690.81433652 275.1652832 695.4831543 C276.68491668 696.9974258 278.19912517 698.5169743 279.71289062 700.03710938 C284.47896721 704.80644796 289.29424406 709.46554409 294.41967773 713.85229492 C297.56030771 716.57233099 300.54743726 719.45504828 303.5625 722.3125 C308.72584688 727.1677881 313.97977415 731.81138525 319.51953125 736.23828125 C322.58432824 738.70678011 325.57215047 741.25495834 328.5625 743.8125 C334.68467419 749.02182156 340.96530499 754.00306756 347.31640625 758.92919922 C349.37658155 760.53624 351.42318644 762.15956434 353.46875 763.78515625 C361.88558287 770.44538421 370.44568905 776.75464007 379.34985352 782.74902344 C384.28397169 786.07329608 389.10988903 789.50091846 393.875 793.0625 C401.75042376 798.91709615 409.96111169 804.19189243 418.25 809.4375 C419.80612204 810.4281774 421.36210937 811.4190664 422.91796875 812.41015625 C449.52239431 829.32209032 476.65259867 845.16984668 504.49462891 859.96582031 C506.84251363 861.21985621 509.1802381 862.48926823 511.51171875 863.7734375 C519.23232744 868.00973893 527.10763318 871.71887786 535.16333008 875.2722168 C540.38053677 877.57388083 545.47947802 879.99486035 550.47265625 882.7578125 C552.44140728 883.72604595 552.44140728 883.72604595 555.25 882.4375 C556.80074469 880.44667911 558.22005774 878.46479877 559.625 876.375 C565.40536455 868.03591841 571.76515704 860.23430541 578.25 852.4375 C578.75772949 851.82390625 579.26545898 851.2103125 579.78857422 850.578125 C584.53256445 844.85235129 589.2812459 839.21094145 594.640625 834.04296875 C596.44000437 832.24795681 598.09183942 830.36346085 599.75 828.4375 C604.80781371 822.59116299 610.25598654 817.32728954 616.12109375 812.296875 C617.55538851 811.04416986 618.96425562 809.76181684 620.34765625 808.453125 C648.15114248 782.31880175 682.47318052 764.56388339 720.96484375 765.1015625 C735.04993859 765.61008002 747.08336625 771.80234171 759.25 778.4375 C760.29929687 779.0046875 761.34859375 779.571875 762.4296875 780.15625 C775.8050307 787.67766315 787.66027875 797.20574109 799.45019531 806.95361328 C801.8903798 808.96547456 804.353289 810.94896885 806.8125 812.9375 C812.44078831 817.54629297 817.9216771 822.31987256 823.40625 827.09765625 C827.10487799 830.31804565 830.83159553 833.50462644 834.5625 836.6875 C838.57359256 840.11176605 842.53655706 843.57477275 846.4375 847.125 C849.70804605 850.09774023 853.05235614 852.92235914 856.5 855.6875 C862.26090379 860.345252 867.63220365 865.36830934 873.03125 870.43359375 C876.04783854 873.26121009 879.13154577 875.99802023 882.26171875 878.69921875 C885.7614725 881.75892488 889.1757248 884.91343465 892.609375 888.046875 C894.71799215 889.95585975 896.84465957 891.83203302 899 893.6875 C903.019461 897.18268348 906.91570118 900.80695391 910.8125 904.4375 C911.43801758 905.01918945 912.06353516 905.60087891 912.70800781 906.20019531 C915.76755506 909.06038163 918.77617997 911.9530367 921.71484375 914.9375 C924.07950704 917.32299295 926.5099566 919.56639 929.05859375 921.75390625 C934.0438683 926.05942522 938.66719584 930.70869221 943.3125 935.375 C944.17166016 936.23029297 945.03082031 937.08558594 945.91601562 937.96679688 C950.9040612 942.96246361 955.65978674 948.07650787 960.25 953.4375 C961.28307105 954.60601349 962.31819103 955.77271911 963.35546875 956.9375 C987.88229549 984.68657106 1011.439787 1018.01934976 1011.43530273 1056.40014648 C1011.43746804 1058.46945436 1011.45558952 1060.53820962 1011.47460938 1062.60742188 C1011.5262619 1074.17507065 1010.32882333 1084.78957981 1006.1875 1095.625 C1005.88223389 1096.43106689 1005.57696777 1097.23713379 1005.26245117 1098.06762695 C997.17202642 1118.80403291 984.63176159 1135.53851543 969.25 1151.4375 C968.61578125 1152.11167969 967.9815625 1152.78585937 967.328125 1153.48046875 C962.38649426 1158.62211787 956.83200018 1163.01539596 951.25 1167.4375 C950.23679687 1168.24445313 949.22359375 1169.05140625 948.1796875 1169.8828125 C915.30341447 1195.79723125 875.73352703 1215.87433362 836.25 1229.4375 C834.97213623 1229.88585205 834.97213623 1229.88585205 833.66845703 1230.34326172 C780.02312694 1249.14911044 723.31957444 1251.45026604 667.25 1245.4375 C666.11224121 1245.32003418 664.97448242 1245.20256836 663.80224609 1245.08154297 C648.41363417 1243.46676118 633.37179484 1240.67959367 618.25 1237.4375 C616.20834936 1237.00643449 614.16668286 1236.57544412 612.125 1236.14453125 C602.55986141 1234.1091796 593.04295669 1231.95481435 583.5703125 1229.5234375 C580.24091661 1228.67476796 576.90090831 1227.88121106 573.5546875 1227.1015625 C527.1456217 1216.26754312 483.12444041 1200.08931214 440.25 1179.4375 C439.33331543 1178.99841309 438.41663086 1178.55932617 437.47216797 1178.10693359 C423.71812031 1171.48939574 410.44825268 1164.09521589 397.25 1156.4375 C396.04665894 1155.7432998 394.8432047 1155.04929577 393.63964844 1154.35546875 C373.96437425 1142.99453779 354.95924531 1130.82191765 336.15527344 1118.07714844 C330.71009473 1114.3902841 325.22886043 1110.75791392 319.75012207 1107.12121582 C302.11458192 1095.4045839 284.56498762 1083.58716667 267.48291016 1071.07324219 C265.1725144 1069.38073709 262.85774853 1067.69431529 260.54296875 1066.0078125 C250.29969141 1058.52310419 240.23999151 1050.82852119 230.25585938 1043.00244141 C227.39569438 1040.77098357 224.50998977 1038.57427176 221.625 1036.375 C211.12706385 1028.30983495 200.90453336 1019.90001538 190.82763672 1011.31616211 C187.54409779 1008.52112982 184.225653 1005.77657827 180.875 1003.0625 C171.08242303 995.08019563 161.58627928 986.74888776 152.31005859 978.17358398 C149.72099516 975.78034311 147.10992356 973.42466062 144.4375 971.125 C139.92431403 967.2123211 135.58429444 963.11484626 131.23120117 959.02612305 C128.37990015 956.35026303 125.52212145 953.68456265 122.62696838 951.05601501 C115.43307328 944.52400126 108.46838693 937.8044752 101.60546875 930.92578125 C100.54094172 929.86193088 99.47626656 928.79822873 98.41145325 927.73466492 C96.20407602 925.52874511 93.9984741 923.32107051 91.79418945 921.11206055 C88.98944024 918.30158694 86.18018476 915.49566716 83.36959362 912.69103718 C81.17915409 910.50423264 78.99112805 908.31502568 76.80379677 906.12511253 C75.76925008 905.08990615 74.73398065 904.05542146 73.69792747 903.02172279 C67.99954357 897.33346583 62.49003589 891.55296171 57.25 885.4375 C55.98319342 884.05666467 54.70828633 882.68311009 53.41796875 881.32421875 C52.76965088 880.63924316 52.12133301 879.95426758 51.45336914 879.24853516 C50.78813232 878.54776855 50.12289551 877.84700195 49.4375 877.125 C40.84815489 868.02900501 32.39190978 858.93028958 24.53125 849.1875 C22.18281032 846.35650422 19.74090098 843.64366402 17.25 840.9375 C13.21045182 836.54371452 9.40320381 832.01911176 5.65625 827.375 C2.952205 824.07395806 0.16867139 820.85004385 -2.625 817.625 C-8.08392125 811.3008194 -13.27086038 804.79496389 -18.38671875 798.19189453 C-20.22066003 795.83181179 -22.07152627 793.48526828 -23.92236328 791.13842773 C-29.07996813 784.59586016 -34.18799329 778.01614106 -39.24951172 771.39892578 C-40.33892948 769.97484796 -41.42921261 768.55143201 -42.52001953 767.12841797 C-55.20048157 750.58097894 -67.69439599 733.91731783 -79.65698242 716.84179688 C-81.58101124 714.09748355 -83.51335108 711.35958037 -85.45874023 708.63037109 C-92.79218799 698.33017871 -99.89652805 687.88851285 -106.90405273 677.36425781 C-108.67855418 674.70092669 -110.45918508 672.04176792 -112.24023438 669.3828125 C-161.78694448 595.19946822 -200.6402644 515.58842862 -228.25 430.8125 C-228.49398529 430.06493439 -228.73797058 429.31736877 -228.98934937 428.54714966 C-233.79822687 413.75960042 -237.93557641 398.80704809 -241.8125 383.75 C-243.77022943 376.11925176 -243.77022943 376.11925176 -245.84375 368.51953125 C-250.3139555 352.56738663 -253.34414404 336.18252599 -255.76196289 319.80175781 C-256.29761655 316.18159347 -256.91870849 312.61877705 -257.69921875 309.04296875 C-273.8537681 229.27559709 -259.20949364 147.07353311 -214.71606445 79.02075195 C-208.41376433 69.53970851 -201.92734859 60.27697142 -194.75 51.4375 C-193.99460937 50.49132812 -193.23921875 49.54515625 -192.4609375 48.5703125 C-179.83215222 32.90367509 -165.89135138 17.56063661 -149.75 5.4375 C-149.22229004 5.03869629 -148.69458008 4.63989258 -148.15087891 4.22900391 C-100.15783231 -31.81074426 -48.3235028 -38.94425753 0 0 Z " fill="#77B05D" transform="translate(396.75,533.5625)"/>
<path d="M0 0 C1.16354004 -0.00427002 2.32708008 -0.00854004 3.52587891 -0.01293945 C4.77933105 -0.00351318 6.0327832 0.00591309 7.32421875 0.015625 C7.97831726 0.01905914 8.63241577 0.02249329 9.30633545 0.02603149 C37.52511115 0.19723203 65.14575372 2.90804598 93.01171875 7.265625 C94.13320313 7.43852051 95.2546875 7.61141602 96.41015625 7.78955078 C110.71380634 10.02563348 124.78294815 13.11051935 138.85205078 16.50976562 C141.80563306 17.21632495 144.76437009 17.89313617 147.7265625 18.5625 C212.07224685 33.44453046 275.8643301 62.46518794 330.01171875 100.265625 C331.32420392 101.16929238 332.63670461 102.07293721 333.94921875 102.9765625 C349.20153584 113.54898724 364.13636556 124.66917555 378.16796875 136.82421875 C380.94204096 139.20580547 383.77690649 141.48821832 386.63671875 143.765625 C391.5797271 147.78047021 396.02090086 152.17679968 400.46875 156.71875 C402.54765965 158.80085306 404.64418987 160.74129236 406.88671875 162.640625 C414.87050684 169.47211378 422.3530168 177.11160285 429.1484375 185.12109375 C431.15230491 187.42743171 433.22425594 189.6578639 435.31005859 191.88989258 C440.27484158 197.20600815 445.06071139 202.59895788 449.61328125 208.27734375 C451.40217012 210.50617109 453.20778116 212.71332121 455.03515625 214.91015625 C462.87191948 224.36661152 470.09333205 234.12110352 477.01171875 244.265625 C477.82527832 245.45019287 477.82527832 245.45019287 478.65527344 246.65869141 C488.37224498 260.84165708 497.340272 275.42332284 506.01171875 290.265625 C506.46998047 291.04405762 506.92824219 291.82249023 507.40039062 292.62451172 C532.81312082 336.00653983 551.68738355 384.59410157 564.01171875 433.265625 C564.4905249 435.14024414 564.4905249 435.14024414 564.97900391 437.05273438 C570.53192209 458.94070864 574.65281684 480.94205882 578.01171875 503.265625 C578.1804248 504.36438965 578.34913086 505.4631543 578.52294922 506.59521484 C581.8161255 528.3358501 583.14978479 550.299242 583.3631897 572.27523804 C583.37866547 573.74880827 583.40028163 575.22232905 583.42855835 576.69570923 C583.63357934 588.46945801 582.25255022 597.72746066 573.9296875 606.51171875 C566.07784442 613.69191741 557.53025608 615.83398407 547.046875 615.6484375 C539.67795849 614.71902461 533.78006951 610.85140731 529.01171875 605.265625 C528.14546875 604.3375 527.27921875 603.409375 526.38671875 602.453125 C520.70227883 594.82400827 520.59839086 587.65355751 520.51171875 578.453125 C519.9665146 553.97093728 517.86081178 529.45339212 514.01171875 505.265625 C513.84446289 504.18748535 513.67720703 503.1093457 513.50488281 501.99853516 C508.37193425 469.25654508 499.84569159 437.62629151 489.44921875 406.203125 C489.22351196 405.51778687 488.99780518 404.83244873 488.76525879 404.12634277 C483.97335833 389.62153138 478.35527977 375.61430307 471.88671875 361.765625 C471.60992279 361.17155853 471.33312683 360.57749207 471.04794312 359.96542358 C462.61649516 341.90112059 453.44607272 324.25759919 443.01171875 307.265625 C442.3161084 306.12963867 442.3161084 306.12963867 441.60644531 304.97070312 C434.50388158 293.42251333 426.99362438 282.22368989 419.01171875 271.265625 C418.59792969 270.69730957 418.18414063 270.12899414 417.7578125 269.54345703 C412.41952597 262.24735832 406.8178104 255.19366673 401.01171875 248.265625 C400.35695557 247.48131104 400.35695557 247.48131104 399.68896484 246.68115234 C388.29527863 233.06901294 376.09858561 220.276018 363.57421875 207.703125 C362.74599609 206.87022949 361.91777344 206.03733398 361.06445312 205.17919922 C356.20692484 200.3343921 351.2191109 195.72958849 346.01171875 191.265625 C344.85506257 190.24411852 343.70007119 189.22072342 342.546875 188.1953125 C315.75288334 164.54836908 285.86437625 144.87675212 254.59228516 127.68505859 C252.32368302 126.4372201 250.06367944 125.17525748 247.8046875 123.91015625 C212.05042533 104.16208519 172.54266583 90.16857187 133.01171875 80.265625 C131.21717239 79.791406 129.4229283 79.31604243 127.62890625 78.83984375 C114.54266579 75.41057601 101.4872632 72.77164011 88.11523438 70.7421875 C84.90532923 70.24928828 81.70080494 69.72867479 78.49609375 69.203125 C61.12393927 66.38215982 44.03786343 64.3334469 26.4296875 64.06640625 C25.47848526 64.05057999 24.52728302 64.03475372 23.54725647 64.01844788 C18.7187575 63.94061897 13.89184984 63.88607601 9.06274414 63.87036133 C-3.45616364 63.76115479 -12.87152528 62.95883249 -22.30859375 53.9765625 C-28.89558777 47.26701975 -32.16010447 40.23116516 -32.55078125 30.765625 C-32.25652251 21.84327974 -28.34287784 14.47900833 -21.98828125 8.265625 C-15.08252271 3.44549823 -8.57437144 0.01904962 0 0 Z " fill="#77B05D" transform="translate(883.98828125,441.734375)"/>
<path d="M0 0 C1.28665558 -0.01419983 1.28665558 -0.01419983 2.5993042 -0.02868652 C3.52938293 -0.03307739 4.45946167 -0.03746826 5.41772461 -0.04199219 C6.87097137 -0.05244568 6.87097137 -0.05244568 8.35357666 -0.06311035 C11.50911741 -0.08061071 14.66448093 -0.08684306 17.82006836 -0.08886719 C19.42813858 -0.09037781 19.42813858 -0.09037781 21.06869507 -0.09191895 C36.16812259 -0.08228966 50.90190936 0.33057534 65.84155273 2.70361328 C68.95962864 3.19283584 72.08265405 3.61945843 75.21069336 4.04003906 C96.47046225 6.9860199 117.17909268 12.13106754 137.75756836 18.16113281 C138.98217773 18.51433594 140.20678711 18.86753906 141.46850586 19.23144531 C165.47994254 26.42984247 188.32678847 36.06792888 210.75756836 47.16113281 C211.72436523 47.63711914 212.69116211 48.11310547 213.68725586 48.60351562 C226.31863529 54.91462876 238.08025727 62.47626308 249.82006836 70.28613281 C250.51758209 70.74963135 251.21509583 71.21312988 251.93374634 71.69067383 C265.11489673 80.48135054 277.59732535 89.99709933 289.75756836 100.16113281 C290.27367676 100.59087402 290.78978516 101.02061523 291.3215332 101.46337891 C306.05838319 113.77122286 319.96102536 126.84345543 332.75756836 141.16113281 C333.53229492 141.99773437 334.30702148 142.83433594 335.10522461 143.69628906 C393.80009493 207.3600373 429.64395021 294.84487699 439.75756836 380.16113281 C439.88627319 381.2178418 439.88627319 381.2178418 440.01757812 382.29589844 C441.53541174 394.98805816 442.13031099 407.56645736 442.12817383 420.34667969 C442.13261785 423.31923911 442.16932924 426.29038939 442.20678711 429.26269531 C442.21264583 431.1897737 442.21662153 433.11685894 442.21850586 435.04394531 C442.24006241 436.3488945 442.24006241 436.3488945 442.26205444 437.6802063 C442.19793509 446.38774053 439.4626485 454.21556233 433.45678711 460.62988281 C425.58708587 467.72165956 417.35160381 469.63417015 406.89819336 469.39550781 C397.6125653 468.70255049 392.04176216 463.83530318 385.75756836 457.16113281 C381.06150708 450.91234159 379.47127539 444.19514275 379.44897461 436.50097656 C379.42646902 434.98510077 379.40350042 433.4692318 379.38012695 431.95336914 C379.37100281 431.16233795 379.36187866 430.37130676 379.35247803 429.55630493 C378.63931786 375.47633525 367.31702556 320.09311468 343.75756836 271.16113281 C343.35844238 270.32195312 342.95931641 269.48277344 342.5480957 268.61816406 C332.92161168 248.47569272 321.82906151 229.26722934 308.75756836 211.16113281 C308.01120117 210.11957031 307.26483398 209.07800781 306.49584961 208.00488281 C300.65628929 200.03708058 294.29169834 192.56071047 287.75756836 185.16113281 C286.90678711 184.19691406 286.05600586 183.23269531 285.17944336 182.23925781 C274.42330496 170.29532499 263.24006016 158.16421574 250.49609375 148.31713867 C247.68189557 146.1015566 244.96797571 143.79332351 242.24584961 141.46582031 C236.07794012 136.27515933 229.55603437 131.71261783 222.82006836 127.28613281 C222.23730133 126.90061249 221.6545343 126.51509216 221.05410767 126.1178894 C210.22943274 118.9659541 199.20239244 112.27743937 187.75756836 106.16113281 C186.89421875 105.69658691 186.03086914 105.23204102 185.14135742 104.75341797 C171.40366885 97.43018487 157.28526617 91.57022334 142.67211914 86.22753906 C140.1201671 85.29380422 137.57663695 84.34098809 135.03491211 83.37988281 C125.23284607 79.72948155 115.27582235 77.13012584 105.10327148 74.72705078 C102.97415687 74.21338637 100.85760951 73.66866581 98.74194336 73.10253906 C91.09291147 71.08010985 83.41941865 69.4409871 75.63256836 68.03613281 C74.78202881 67.87749756 73.93148926 67.7188623 73.05517578 67.55541992 C58.8829913 65.09894237 44.4405251 64.16460817 30.08178711 63.66894531 C29.12218079 63.63550018 28.16257446 63.60205505 27.17388916 63.56759644 C23.2675462 63.43606159 19.36131943 63.31021516 15.45410156 63.20751953 C12.53753886 63.12780986 9.62249263 63.02506015 6.70678711 62.91894531 C5.40350716 62.89370285 5.40350716 62.89370285 4.07389832 62.86795044 C-4.86651851 62.5091025 -11.92180463 59.21648578 -18.45336914 53.15332031 C-21.43399118 49.83428704 -23.39566222 46.19860442 -25.24243164 42.16113281 C-25.89211914 40.76894531 -25.89211914 40.76894531 -26.55493164 39.34863281 C-28.68948889 29.45204921 -27.42742155 20.73941382 -21.99243164 12.19628906 C-16.86890684 5.5444401 -8.51823127 0.07756379 0 0 Z " fill="#77B05D" transform="translate(873.242431640625,600.8388671875)"/>
<path d="M0 0 C0.93875977 0.17160645 1.87751953 0.34321289 2.84472656 0.52001953 C44.88200373 8.32096698 84.80141274 23.58506481 120 48 C120.53657227 48.36528809 121.07314453 48.73057617 121.62597656 49.10693359 C131.36055186 55.7415937 140.2635763 63.10585715 149 71 C149.63615234 71.57298828 150.27230469 72.14597656 150.92773438 72.73632812 C192.0364239 109.93782168 219.66964239 157.9063303 235 211 C235.23557617 211.80646973 235.47115234 212.61293945 235.71386719 213.44384766 C239.99439928 228.37685939 242.0742482 243.61025253 244 259 C244.10530029 259.80719482 244.21060059 260.61438965 244.3190918 261.44604492 C245.035583 267.27423892 245.25140412 273.06822222 245.3125 278.9375 C245.34150391 279.86240234 245.37050781 280.78730469 245.40039062 281.74023438 C245.47304613 289.7155733 243.63318104 296.9114915 238.6875 303.3125 C231.16884787 310.83115213 223.76699299 314.27591239 213.0625 314.5 C204.00654229 314.45633178 198.73450886 311.68434005 192.1875 305.6875 C185.15815961 298.18628259 182.84072178 288.97467683 182.5625 278.875 C179.67938005 215.14356779 150.61914585 158.65270895 105.09375 115.1796875 C83.70416984 95.69341744 55.32388702 80.82640915 28 72 C26.7924707 71.60240479 26.7924707 71.60240479 25.56054688 71.19677734 C5.40508035 64.61968864 -15.27897349 60.43423117 -36.49267578 59.71508789 C-48.53921758 59.28225693 -56.51865233 57.09244914 -65 48 C-70.94630419 40.46902084 -72.57352562 32.47819679 -72.37109375 23.0234375 C-71.28754724 14.19538487 -65.79736542 7.41040299 -59 2 C-42.49010311 -8.17127576 -18.18768865 -3.42564882 0 0 Z " fill="#77B05D" transform="translate(920,756)"/>
</svg>
